<?xml version="1.0" standalone="no"?><!DOCTYPE svg PUBLIC "-//W3C//DTD SVG 1.1//EN" "http://www.w3.org/Graphics/SVG/1.1/DTD/svg11.dtd"><svg height="406" node-id="1" sillyvg="true" template-height="406" template-width="629" version="1.1" viewBox="0 0 629 406" width="629" xmlns="http://www.w3.org/2000/svg" xmlns:xlink="http://www.w3.org/1999/xlink"><defs node-id="160"><linearGradient gradientUnits="userSpaceOnUse" id="paint0_linear" node-id="150" spreadMethod="pad" x1="334.445" x2="325.089" y1="344.067" y2="344.067"><stop offset="0" stop-color="#f9faff"></stop><stop offset="1" stop-color="#d1dbff"></stop></linearGradient><linearGradient gradientUnits="userSpaceOnUse" id="paint1_linear" node-id="153" spreadMethod="pad" x1="345.154" x2="337.465" y1="332.852" y2="332.852"><stop offset="0" stop-color="#f9faff"></stop><stop offset="1" stop-color="#d1dbff"></stop></linearGradient><linearGradient gradientUnits="userSpaceOnUse" id="paint2_linear" node-id="156" spreadMethod="pad" x1="346.547" x2="340.014" y1="347.361" y2="347.361"><stop offset="0" stop-color="#f9faff"></stop><stop offset="1" stop-color="#d1dbff"></stop></linearGradient></defs><path d="M 604.52 1.68 C 604.52 0.75 603.77 0.00 602.84 0.00 L 322.56 0.00 C 321.63 0.00 320.88 0.75 320.88 1.68 L 320.88 219.08 C 320.88 220.01 321.63 220.76 322.56 220.76 L 602.84 220.76 C 603.77 220.76 604.52 220.01 604.52 219.08 L 604.52 1.68 Z" fill="#a7c3ff" fill-rule="evenodd" node-id="181" stroke="none" target-height="220.76" target-width="283.64" target-x="320.88" target-y="0"></path><path d="M 463.96 176.24 L 447.16 176.24 L 539.56 404.72 L 553.00 404.72 L 463.96 176.24 Z" fill="#9ab9fa" fill-rule="evenodd" node-id="183" stroke="none" target-height="228.48" target-width="105.84" target-x="447.16" target-y="176.24"></path><path d="M 454.72 176.24 L 441.28 176.24 L 533.68 404.72 L 547.12 404.72 L 454.72 176.24 Z" fill="#a7c3ff" fill-rule="evenodd" node-id="185" stroke="none" target-height="228.48" target-width="105.84" target-x="441.28" target-y="176.24"></path><path d="M 487.48 176.24 L 470.68 176.24 L 495.88 404.72 L 512.68 404.72 L 487.48 176.24 Z" fill="#9ab9fa" fill-rule="evenodd" node-id="187" stroke="none" target-height="228.48" target-width="42" target-x="470.68" target-y="176.24"></path><path d="M 481.60 176.24 L 468.16 176.24 L 493.36 404.72 L 506.80 404.72 L 481.60 176.24 Z" fill="#a7c3ff" fill-rule="evenodd" node-id="189" stroke="none" target-height="228.48" target-width="38.639984" target-x="468.16" target-y="176.24"></path><path d="M 434.56 176.24 L 451.36 176.24 L 426.16 404.72 L 409.36 404.72 L 434.56 176.24 Z" fill="#9ab9fa" fill-rule="evenodd" node-id="191" stroke="none" target-height="228.48" target-width="42" target-x="409.36" target-y="176.24"></path><path d="M 432.04 176.24 L 445.48 176.24 L 420.28 404.72 L 406.84 404.72 L 432.04 176.24 Z" fill="#a7c3ff" fill-rule="evenodd" node-id="193" stroke="none" target-height="228.48" target-width="38.640015" target-x="406.84" target-y="176.24"></path><path d="M 595.12 0.00 L 313.48 0.00 C 312.93 0.00 312.48 0.45 312.48 1.00 L 312.48 219.76 C 312.48 220.31 312.93 220.76 313.48 220.76 L 595.12 220.76 C 595.67 220.76 596.12 220.31 596.12 219.76 L 596.12 1.00 C 596.12 0.45 595.67 0.00 595.12 0.00 Z" fill="#eaefff" fill-rule="nonzero" node-id="195" stroke="none" target-height="220.76" target-width="283.63998" target-x="312.48" target-y="0"></path><path d="M 336.20 27.60 C 336.20 24.29 338.89 21.60 342.20 21.60 L 492.20 21.60 C 495.51 21.60 498.20 24.29 498.20 27.60 L 498.20 156.00 C 498.20 159.31 495.51 162.00 492.20 162.00 L 342.20 162.00 C 338.89 162.00 336.20 159.31 336.20 156.00 L 336.20 27.60 Z" fill="#d5e4ff" fill-rule="evenodd" node-id="197" stroke="none" target-height="140.3999" target-width="162" target-x="336.2" target-y="21.6001"></path><path d="M 332.30 24.00 C 332.30 20.85 334.85 18.30 338.00 18.30 L 488.00 18.30 C 491.15 18.30 493.70 20.85 493.70 24.00 L 493.70 152.40 C 493.70 155.55 491.15 158.10 488.00 158.10 L 338.00 158.10 C 334.85 158.10 332.30 155.55 332.30 152.40 L 332.30 24.00 Z" fill="#ffffff" fill-rule="nonzero" node-id="199" stroke="#d2e0ff" stroke-linecap="butt" stroke-width="0.6" target-height="139.8" target-width="161.40002" target-x="332.3" target-y="18.3"></path><path d="M 476.84 106.80 C 477.01 106.80 477.14 106.94 477.14 107.10 C 477.14 107.25 477.03 107.37 476.89 107.39 L 476.84 107.40 L 369.20 107.40 C 369.04 107.40 368.90 107.27 368.90 107.10 C 368.90 106.95 369.01 106.83 369.15 106.81 L 369.20 106.80 L 476.84 106.80 Z" fill="#d2e0ff" fill-rule="nonzero" node-id="201" stroke="none" target-height="0.5999985" target-width="108.24002" target-x="368.9" target-y="106.8"></path><path d="M 476.84 94.80 C 477.01 94.80 477.14 94.93 477.14 95.10 C 477.14 95.25 477.03 95.37 476.89 95.40 L 476.84 95.40 L 369.20 95.40 C 369.04 95.40 368.90 95.27 368.90 95.10 C 368.90 94.95 369.01 94.83 369.15 94.81 L 369.20 94.80 L 476.84 94.80 Z" fill="#d2e0ff" fill-rule="nonzero" node-id="203" stroke="none" target-height="0.5999985" target-width="108.24002" target-x="368.9" target-y="94.8003"></path><path d="M 476.84 82.80 C 477.01 82.80 477.14 82.93 477.14 83.10 C 477.14 83.25 477.03 83.37 476.89 83.40 L 476.84 83.40 L 369.20 83.40 C 369.04 83.40 368.90 83.27 368.90 83.10 C 368.90 82.95 369.01 82.83 369.15 82.81 L 369.20 82.80 L 476.84 82.80 Z" fill="#d2e0ff" fill-rule="nonzero" node-id="205" stroke="none" target-height="0.5999985" target-width="108.24002" target-x="368.9" target-y="82.8003"></path><path d="M 476.84 70.80 C 477.01 70.80 477.14 70.93 477.14 71.10 C 477.14 71.25 477.03 71.37 476.89 71.40 L 476.84 71.40 L 369.20 71.40 C 369.04 71.40 368.90 71.27 368.90 71.10 C 368.90 70.95 369.01 70.83 369.15 70.81 L 369.20 70.80 L 476.84 70.80 Z" fill="#d2e0ff" fill-rule="nonzero" node-id="207" stroke="none" target-height="0.5999985" target-width="108.24002" target-x="368.9" target-y="70.8003"></path><path d="M 476.84 58.80 C 477.01 58.80 477.14 58.93 477.14 59.10 C 477.14 59.25 477.03 59.37 476.89 59.40 L 476.84 59.40 L 369.20 59.40 C 369.04 59.40 368.90 59.27 368.90 59.10 C 368.90 58.95 369.01 58.83 369.15 58.81 L 369.20 58.80 L 476.84 58.80 Z" fill="#d2e0ff" fill-rule="nonzero" node-id="209" stroke="none" target-height="0.5999985" target-width="108.24002" target-x="368.9" target-y="58.8003"></path><path d="M 452.84 57.90 L 452.84 60.30 L 369.20 60.30 L 369.20 57.90 L 452.84 57.90 Z" fill="#4ed266" fill-rule="nonzero" node-id="211" stroke="none" target-height="2.4000015" target-width="83.639984" target-x="369.2" target-y="57.8999"></path><path d="M 476.84 130.80 C 477.01 130.80 477.14 130.94 477.14 131.10 C 477.14 131.25 477.03 131.37 476.89 131.40 L 476.84 131.40 L 369.20 131.40 C 369.04 131.40 368.90 131.27 368.90 131.10 C 368.90 130.95 369.01 130.83 369.15 130.81 L 369.20 130.80 L 476.84 130.80 Z" fill="#d2e0ff" fill-rule="nonzero" node-id="213" stroke="none" target-height="0.59999084" target-width="108.24002" target-x="368.9" target-y="130.8"></path><path d="M 476.84 142.80 C 477.01 142.80 477.14 142.94 477.14 143.10 C 477.14 143.25 477.03 143.37 476.89 143.40 L 476.84 143.40 L 369.20 143.40 C 369.04 143.40 368.90 143.27 368.90 143.10 C 368.90 142.95 369.01 142.83 369.15 142.81 L 369.20 142.80 L 476.84 142.80 Z" fill="#d2e0ff" fill-rule="nonzero" node-id="215" stroke="none" target-height="0.59999084" target-width="108.24002" target-x="368.9" target-y="142.8"></path><path d="M 476.84 118.80 C 477.01 118.80 477.14 118.94 477.14 119.10 C 477.14 119.25 477.03 119.37 476.89 119.39 L 476.84 119.40 L 369.20 119.40 C 369.04 119.40 368.90 119.27 368.90 119.10 C 368.90 118.95 369.01 118.83 369.15 118.81 L 369.20 118.80 L 476.84 118.80 Z" fill="#d2e0ff" fill-rule="nonzero" node-id="217" stroke="none" target-height="0.5999985" target-width="108.24002" target-x="368.9" target-y="118.8"></path><path d="M 361.04 57.90 L 361.04 60.30 L 351.20 60.30 L 351.20 57.90 L 361.04 57.90 Z" fill="#d2e0ff" fill-rule="nonzero" node-id="219" stroke="none" target-height="2.4000015" target-width="9.839996" target-x="351.2" target-y="57.8999"></path><path d="M 428.84 69.90 L 428.84 72.30 L 369.20 72.30 L 369.20 69.90 L 428.84 69.90 Z" fill="#1075f0" fill-rule="nonzero" node-id="221" stroke="none" target-height="2.399994" target-width="59.639984" target-x="369.2" target-y="69.8999"></path><path d="M 361.04 69.90 L 361.04 72.30 L 351.20 72.30 L 351.20 69.90 L 361.04 69.90 Z" fill="#d2e0ff" fill-rule="nonzero" node-id="223" stroke="none" target-height="2.399994" target-width="9.839996" target-x="351.2" target-y="69.8999"></path><path d="M 422.84 81.90 L 422.84 84.30 L 369.20 84.30 L 369.20 81.90 L 422.84 81.90 Z" fill="#ff427b" fill-rule="evenodd" node-id="225" stroke="none" target-height="2.399994" target-width="53.639984" target-x="369.2" target-y="81.8999"></path><path d="M 361.04 81.90 L 361.04 84.30 L 351.20 84.30 L 351.20 81.90 L 361.04 81.90 Z" fill="#d2e0ff" fill-rule="nonzero" node-id="227" stroke="none" target-height="2.399994" target-width="9.839996" target-x="351.2" target-y="81.8999"></path><path d="M 416.84 93.90 L 416.84 96.30 L 369.20 96.30 L 369.20 93.90 L 416.84 93.90 Z" fill="#ffb518" fill-rule="evenodd" node-id="229" stroke="none" target-height="2.399994" target-width="47.639984" target-x="369.2" target-y="93.8999"></path><path d="M 361.04 93.90 L 361.04 96.30 L 351.20 96.30 L 351.20 93.90 L 361.04 93.90 Z" fill="#d2e0ff" fill-rule="nonzero" node-id="231" stroke="none" target-height="2.399994" target-width="9.839996" target-x="351.2" target-y="93.8999"></path><path d="M 410.84 105.90 L 410.84 108.30 L 369.20 108.30 L 369.20 105.90 L 410.84 105.90 Z" fill="#b34ee6" fill-rule="nonzero" node-id="233" stroke="none" target-height="2.4000015" target-width="41.639984" target-x="369.2" target-y="105.9"></path><path d="M 361.04 105.90 L 361.04 108.30 L 351.20 108.30 L 351.20 105.90 L 361.04 105.90 Z" fill="#d2e0ff" fill-rule="nonzero" node-id="235" stroke="none" target-height="2.4000015" target-width="9.839996" target-x="351.2" target-y="105.9"></path><path d="M 404.84 117.90 L 404.84 120.30 L 369.20 120.30 L 369.20 117.90 L 404.84 117.90 Z" fill="#70a1ff" fill-rule="nonzero" node-id="237" stroke="none" target-height="2.4000015" target-width="35.639984" target-x="369.2" target-y="117.9"></path><path d="M 361.04 117.90 L 361.04 120.30 L 351.20 120.30 L 351.20 117.90 L 361.04 117.90 Z" fill="#d2e0ff" fill-rule="nonzero" node-id="239" stroke="none" target-height="2.4000015" target-width="9.839996" target-x="351.2" target-y="117.9"></path><path d="M 398.84 129.90 L 398.84 132.30 L 369.20 132.30 L 369.20 129.90 L 398.84 129.90 Z" fill="#baf3c4" fill-rule="nonzero" node-id="241" stroke="none" target-height="2.4000092" target-width="29.639984" target-x="369.2" target-y="129.9"></path><path d="M 361.04 129.90 L 361.04 132.30 L 351.20 132.30 L 351.20 129.90 L 361.04 129.90 Z" fill="#d2e0ff" fill-rule="nonzero" node-id="243" stroke="none" target-height="2.4000092" target-width="9.839996" target-x="351.2" target-y="129.9"></path><path d="M 392.84 141.90 L 392.84 144.30 L 369.20 144.30 L 369.20 141.90 L 392.84 141.90 Z" fill="#ffc2d5" fill-rule="evenodd" node-id="245" stroke="none" target-height="2.4000092" target-width="23.639984" target-x="369.2" target-y="141.9"></path><path d="M 361.04 141.90 L 361.04 144.30 L 351.20 144.30 L 351.20 141.90 L 361.04 141.90 Z" fill="#d2e0ff" fill-rule="nonzero" node-id="247" stroke="none" target-height="2.4000092" target-width="9.839996" target-x="351.2" target-y="141.9"></path><path d="M 479.90 33.60 C 480.73 33.60 481.40 32.93 481.40 32.10 C 481.40 31.27 480.73 30.60 479.90 30.60 C 479.07 30.60 478.40 31.27 478.40 32.10 C 478.40 32.93 479.07 33.60 479.90 33.60 Z" fill="#95b2ee" fill-rule="evenodd" node-id="249" stroke="none" target-height="3.000002" target-width="3" target-x="478.4" target-y="30.6001"></path><path d="M 474.50 33.60 C 475.33 33.60 476.00 32.93 476.00 32.10 C 476.00 31.27 475.33 30.60 474.50 30.60 C 473.67 30.60 473.00 31.27 473.00 32.10 C 473.00 32.93 473.67 33.60 474.50 33.60 Z" fill="#95b2ee" fill-rule="evenodd" node-id="251" stroke="none" target-height="3.000002" target-width="3" target-x="473" target-y="30.6001"></path><path d="M 469.10 33.60 C 469.93 33.60 470.60 32.93 470.60 32.10 C 470.60 31.27 469.93 30.60 469.10 30.60 C 468.27 30.60 467.60 31.27 467.60 32.10 C 467.60 32.93 468.27 33.60 469.10 33.60 Z" fill="#95b2ee" fill-rule="evenodd" node-id="253" stroke="none" target-height="3.000002" target-width="3" target-x="467.6" target-y="30.6001"></path><path d="M 397.16 30.00 C 398.32 30.00 399.26 30.94 399.26 32.10 C 399.26 33.22 398.38 34.14 397.27 34.20 L 397.16 34.20 L 352.10 34.20 C 350.94 34.20 350.00 33.26 350.00 32.10 C 350.00 30.98 350.88 30.06 351.99 30.00 L 352.10 30.00 L 397.16 30.00 Z" fill="#a7c3ff" fill-rule="nonzero" node-id="255" stroke="none" target-height="4.200001" target-width="49.256012" target-x="350" target-y="30"></path><path d="M 332.60 44.99 L 494.24 44.99" fill="none" node-id="257" stroke="#d2e0ff" stroke-linecap="butt" stroke-width="0.78" target-height="0" target-width="161.63998" target-x="332.6" target-y="44.9885"></path><path d="M 493.36 211.52 L 484.36 211.52 L 484.36 202.28 L 435.40 202.28 L 435.40 221.60 L 493.36 221.60 L 493.36 211.52 Z" fill="#9ab9fa" fill-rule="evenodd" node-id="259" stroke="none" target-height="19.320007" target-width="57.95999" target-x="435.4" target-y="202.28"></path><g node-id="484"><path d="M 477.40 202.28 L 419.44 202.28 L 419.44 221.60 L 477.40 221.60 Z" fill="#a7c3ff" fill-rule="nonzero" group-id="1" node-id="263" stroke="none" target-height="19.320007" target-width="57.95999" target-x="419.44" target-y="202.28"></path></g><path d="M 503.44 299.72 L 503.44 308.96 L 512.68 308.96 L 512.68 299.72 L 503.44 299.72 Z" fill="#a7c3ff" fill-rule="evenodd" node-id="266" stroke="none" target-height="9.23999" target-width="9.23999" target-x="503.44" target-y="299.72"></path><path d="M 537.00 373.09 L 523.69 373.09 L 521.10 395.27 L 533.30 395.27 L 537.00 373.09 Z" fill="#616988" fill-rule="evenodd" node-id="268" stroke="none" target-height="22.175995" target-width="15.892944" target-x="521.103" target-y="373.091"></path><path d="M 533.65 392.21 C 534.38 391.92 535.20 392.42 535.26 393.20 L 535.89 402.64 L 495.60 402.64 C 495.60 400.11 497.36 397.92 499.82 397.33 C 505.69 395.93 515.78 393.32 517.38 391.57 C 519.66 389.08 522.88 392.46 525.69 393.59 C 527.66 394.38 531.52 393.07 533.65 392.21 Z" fill="#111f53" fill-rule="evenodd" node-id="270" stroke="none" target-height="13.561005" target-width="40.28601" target-x="495.601" target-y="389.082"></path><path d="M 535.89 400.81 L 495.60 400.81 L 495.60 404.14 L 535.89 404.14 L 535.89 400.81 Z" fill="#525151" fill-rule="evenodd" node-id="272" stroke="none" target-height="3.3259888" target-width="40.28601" target-x="495.601" target-y="400.811"></path><path d="M 571.73 186.49 L 548.68 289.41 C 548.68 289.41 550.03 304.87 550.03 315.79 C 550.03 326.72 539.93 381.64 539.93 381.64 L 519.98 381.64 L 529.87 186.49 L 571.73 186.49 Z" fill="#525151" fill-rule="evenodd" node-id="274" stroke="none" target-height="195.15" target-width="51.74402" target-x="519.983" target-y="186.491"></path><path d="M 598.35 373.09 L 585.04 373.09 L 588.37 395.27 L 600.57 395.27 L 598.35 373.09 Z" fill="#616988" fill-rule="evenodd" node-id="276" stroke="none" target-height="22.175995" target-width="15.52301" target-x="585.044" target-y="373.091"></path><path d="M 600.28 392.17 C 600.98 391.89 601.78 392.33 601.88 393.08 L 603.15 402.64 L 562.87 402.64 C 562.87 400.11 564.62 397.91 567.08 397.29 C 572.76 395.88 582.32 393.30 583.91 391.57 C 586.19 389.08 589.41 392.46 592.22 393.59 C 594.22 394.40 598.18 393.02 600.28 392.17 Z" fill="#1b2e76" fill-rule="evenodd" node-id="278" stroke="none" target-height="13.561005" target-width="40.28705" target-x="562.868" target-y="389.082"></path><path d="M 603.15 400.81 L 562.87 400.81 L 562.87 404.14 L 603.15 404.14 L 603.15 400.81 Z" fill="#525151" fill-rule="evenodd" node-id="280" stroke="none" target-height="3.3259888" target-width="40.28705" target-x="562.868" target-y="400.811"></path><path d="M 590.21 186.86 L 594.14 286.08 C 594.14 286.08 599.19 302.65 599.19 313.57 C 599.19 324.50 600.91 382.01 600.91 382.01 L 582.82 382.01 L 549.00 186.86 L 590.21 186.86 Z" fill="#6b6b6b" fill-rule="evenodd" node-id="282" stroke="none" target-height="195.14902" target-width="51.914" target-x="548.996" target-y="186.861"></path><path d="M 562.33 190.44 L 573.74 206.56 L 572.07 190.51 L 562.33 190.44 Z" fill="#282828" fill-rule="evenodd" node-id="284" stroke="none" target-height="16.12001" target-width="11.406006" target-x="562.33" target-y="190.439"></path><path d="M 571.82 189.38 L 583.25 289.49 C 583.25 289.49 586.60 301.90 588.37 315.64 C 590.14 329.38 593.81 382.01 593.81 382.01" fill="none" node-id="286" stroke="#0d0d0d" stroke-linecap="butt" stroke-width="0.5544" target-height="192.634" target-width="21.987" target-x="571.823" target-y="189.376"></path><path d="M 512.43 114.78 L 496.31 123.67 C 496.31 123.67 465.45 80.14 462.68 76.03 C 461.07 73.65 457.27 69.80 453.63 67.66 C 451.76 66.55 449.31 66.32 448.20 66.16 C 447.10 66.00 445.20 67.66 447.10 68.89 C 447.55 69.18 449.80 69.11 451.76 70.61 C 453.41 71.86 454.65 73.99 455.50 75.34 C 458.86 80.72 459.19 86.06 460.30 88.30 C 461.56 90.87 477.08 119.94 485.13 135.01 C 487.79 139.99 493.94 141.90 498.96 139.32 L 520.42 128.34 L 512.43 114.78 Z" fill="#ffc4a7" fill-rule="evenodd" node-id="288" stroke="none" target-height="75.8935" target-width="75.21701" target-x="445.202" target-y="66.0015"></path><path d="M 458.32 75.93 C 458.32 75.93 454.31 76.11 453.51 76.44 C 452.71 76.78 450.69 80.10 450.69 80.84 C 450.69 81.59 452.00 86.15 453.51 86.15 C 454.64 86.15 453.45 83.30 453.51 81.55 C 453.53 80.96 454.82 80.31 455.03 80.12 C 455.85 79.34 459.37 80.84 459.37 80.84 L 458.32 75.93 Z" fill="#ffc4a7" fill-rule="evenodd" node-id="290" stroke="none" target-height="10.217804" target-width="8.676025" target-x="450.692" target-y="75.9312"></path><path d="M 460.85 88.58 C 460.85 88.58 453.45 88.55 452.43 87.28 C 451.42 86.01 446.88 79.07 448.79 78.31 C 450.70 77.55 452.56 82.05 453.98 82.47 C 455.39 82.88 459.67 81.87 459.67 81.87 L 460.85 88.58 Z" fill="#ffc4a7" fill-rule="evenodd" node-id="292" stroke="none" target-height="11.029205" target-width="13.970978" target-x="446.877" target-y="77.546"></path><path d="M 532.50 102.17 C 537.13 99.69 542.89 101.39 545.44 105.98 L 546.47 107.85 C 549.15 112.69 547.21 118.78 542.22 121.17 L 496.47 143.08 C 493.19 144.65 489.27 143.61 487.20 140.62 L 479.22 129.09 L 493.46 116.77 L 498.72 120.26 L 532.50 102.17 Z" fill="#282828" fill-rule="evenodd" node-id="294" stroke="none" target-height="44.962692" target-width="69.939026" target-x="479.216" target-y="99.6873"></path><path d="M 592.56 108.26 C 592.56 104.11 589.44 100.63 585.32 100.17 L 558.75 97.27 L 538.76 100.07 C 534.99 100.59 532.10 103.66 531.78 107.45 L 524.93 190.41 L 592.56 190.41 L 592.56 108.26 Z" fill="#ffa400" fill-rule="evenodd" node-id="296" stroke="none" target-height="93.139496" target-width="67.63696" target-x="524.926" target-y="97.2715"></path><path d="M 578.17 120.26 L 592.41 166.99 L 592.41 139.28 L 578.17 120.26 Z" fill="#080708" fill-opacity="0.340226" fill-rule="evenodd" node-id="298" stroke="none" target-height="46.73201" target-width="14.2439575" target-x="578.166" target-y="120.256"></path><path d="M 591.66 138.84 L 600.55 154.96 C 600.55 154.96 555.48 155.33 552.91 155.33 C 550.34 155.33 542.27 169.20 541.93 169.80 C 541.58 170.40 542.05 172.28 544.24 170.50 C 546.44 168.72 546.99 167.73 548.80 167.73 C 550.62 167.73 553.23 171.11 556.14 170.31 C 559.05 169.50 562.34 166.33 562.91 166.33 C 563.27 166.33 588.70 168.31 606.88 169.73 C 614.86 170.35 620.49 162.06 616.97 154.86 L 605.22 130.85 L 591.66 138.84 Z" fill="#ffc4a7" fill-rule="evenodd" node-id="300" stroke="none" target-height="41.429993" target-width="78.90399" target-x="541.584" target-y="130.85"></path><path d="M 593.54 106.30 C 591.03 101.30 584.80 99.49 580.00 102.37 L 578.28 103.41 C 573.79 106.10 572.29 111.89 574.90 116.43 L 595.87 152.90 L 589.63 154.51 L 598.42 172.48 L 608.71 170.11 C 616.41 168.33 620.41 159.81 616.86 152.75 L 593.54 106.30 Z" fill="#282828" fill-rule="evenodd" node-id="302" stroke="none" target-height="72.995995" target-width="48.12195" target-x="572.288" target-y="99.488"></path><path d="M 553.05 156.08 C 553.05 156.08 544.13 155.83 543.56 157.11 C 542.98 158.40 550.90 159.65 550.90 159.65 L 553.05 156.08 Z" fill="#ffc4a7" fill-rule="evenodd" node-id="304" stroke="none" target-height="3.8220062" target-width="10.069031" target-x="542.982" target-y="155.831"></path><path d="M 564.01 98.05 C 564.01 101.84 560.93 104.91 557.14 104.91 C 553.04 104.91 549.86 101.34 550.32 97.27 L 550.93 92.01 C 550.93 92.01 542.27 92.70 539.34 88.51 C 536.40 84.33 536.81 58.82 536.81 58.82 L 564.01 58.82 C 564.01 58.82 564.01 67.92 564.01 69.80 C 572.31 69.80 572.31 79.83 564.01 79.83 C 564.01 85.79 564.01 92.92 564.01 98.05 Z" fill="#ffc4a7" fill-rule="evenodd" node-id="306" stroke="none" target-height="46.089203" target-width="35.906006" target-x="536.403" target-y="58.8228"></path><path d="M 551.22 88.81 C 551.22 88.81 553.79 88.47 555.77 87.84 C 557.75 87.22 560.25 85.96 560.25 85.96 C 560.25 85.96 556.86 89.26 555.07 90.68 C 553.29 92.10 550.80 93.47 550.80 93.47 L 551.22 88.81 Z" fill="#f19b93" fill-rule="evenodd" node-id="308" stroke="none" target-height="7.512802" target-width="9.458008" target-x="550.796" target-y="85.96"></path><path d="M 548.43 82.30 L 541.69 81.21 C 541.59 81.20 541.49 81.20 541.39 81.23 L 537.66 82.21 C 537.48 82.26 537.36 82.44 537.38 82.62 L 537.48 83.31 C 537.53 83.67 537.84 83.94 538.21 83.90 C 539.01 83.81 540.41 83.52 541.56 82.67 C 543.97 83.94 548.06 83.94 548.06 83.94 L 548.43 82.30 Z" fill="#0a2650" fill-rule="evenodd" node-id="310" stroke="none" target-height="2.7467957" target-width="11.067993" target-x="537.359" target-y="81.1974"></path><path d="M 560.71 68.77 L 560.33 75.24 C 560.08 79.54 556.38 82.81 552.09 82.53 L 548.43 82.30 L 545.66 88.62 C 545.55 88.89 545.28 89.07 544.99 89.07 L 540.48 89.07 C 540.15 89.07 539.87 88.86 539.77 88.55 L 537.95 82.67 L 537.57 82.67 L 538.64 90.89 C 538.90 92.92 540.63 94.44 542.67 94.44 L 544.62 94.44 C 545.18 94.44 545.74 94.32 546.25 94.10 L 557.92 88.99 C 559.77 88.19 561.03 86.45 561.22 84.45 L 562.90 67.15 L 560.71 68.77 Z" fill="#0a2650" fill-rule="evenodd" node-id="312" stroke="none" target-height="27.282402" target-width="25.32898" target-x="537.567" target-y="67.1533"></path><path d="M 542.48 71.85 L 542.48 79.03 L 538.41 79.03 C 538.15 79.03 537.98 78.78 538.07 78.55 C 538.44 77.55 539.36 75.30 540.27 74.25 C 541.46 72.87 542.48 71.85 542.48 71.85 Z" fill="#f19b93" fill-rule="evenodd" node-id="314" stroke="none" target-height="7.1878967" target-width="4.5010376" target-x="537.975" target-y="71.8452"></path><path d="M 571.37 60.33 C 571.37 59.27 559.37 49.58 553.50 49.03 C 548.73 48.59 542.05 52.66 539.07 52.66 C 535.43 52.66 532.64 50.28 532.64 50.28 C 532.64 50.28 528.47 58.20 530.69 61.34 C 532.90 64.47 537.12 66.84 540.46 66.05 C 544.06 65.19 549.83 62.37 553.50 62.37 C 560.31 62.37 560.68 69.79 560.68 69.79 C 560.68 69.79 562.24 69.79 564.07 69.79 C 566.45 69.79 568.44 71.10 568.44 71.10 C 568.44 71.10 571.37 61.39 571.37 60.33 Z" fill="#0a2650" fill-rule="evenodd" node-id="316" stroke="none" target-height="22.509201" target-width="42.901" target-x="528.47" target-y="48.5879"></path><path d="M 136.73 396.96 C 140.06 397.74 149.96 396.87 157.38 397.39 C 160.72 397.62 167.35 396.88 168.49 396.38 C 170.12 395.65 167.59 393.56 165.93 392.90 C 163.21 391.81 158.90 390.07 155.88 388.77 C 151.15 386.73 146.49 384.83 145.96 381.65 C 145.44 378.47 143.76 356.33 143.76 356.33 L 131.40 362.45 C 131.40 362.45 134.33 381.40 134.34 383.37 C 134.36 385.34 132.91 391.88 132.91 391.88 C 132.91 391.88 133.39 396.17 136.73 396.96 Z" fill="#ffc4a7" fill-rule="evenodd" node-id="318" stroke="none" target-height="41.406006" target-width="38.72699" target-x="131.395" target-y="356.332"></path><path d="M 134.28 381.62 C 134.28 381.62 135.58 384.99 139.99 385.30 C 144.40 385.60 146.24 382.45 146.28 381.83 C 146.32 381.21 146.75 380.68 147.16 380.99 C 147.57 381.30 155.98 388.60 157.87 388.73 C 159.77 388.87 167.93 389.57 169.23 392.14 C 170.54 394.71 168.86 397.45 168.86 397.45 C 168.86 397.45 158.29 398.49 147.16 397.45 C 136.03 396.41 134.29 397.42 133.61 396.62 C 132.92 395.81 132.77 392.29 132.57 391.62 C 131.09 386.61 134.28 381.62 134.28 381.62 Z" fill="#7ca1d9" fill-rule="evenodd" node-id="320" stroke="none" target-height="17.812012" target-width="39.453003" target-x="131.091" target-y="380.68"></path><path d="M 140.00 394.49 C 141.39 394.71 147.18 394.14 148.50 394.27 L 149.27 394.35 C 151.80 394.64 156.86 395.32 158.59 395.32 C 164.00 395.32 167.69 394.65 169.68 393.33 C 170.00 394.67 169.73 396.04 168.86 397.45 C 165.73 398.63 162.42 399.22 158.94 399.21 C 156.82 399.21 150.63 398.37 148.49 398.17 C 146.86 398.02 142.11 398.62 140.86 398.49 L 139.83 398.37 C 133.65 397.68 134.16 397.27 133.61 396.61 C 133.09 396.00 132.88 393.86 132.72 392.55 C 135.51 393.53 137.94 394.18 140.00 394.49 Z" fill="#174e9f" fill-rule="evenodd" node-id="322" stroke="none" target-height="6.6690063" target-width="37.279007" target-x="132.719" target-y="392.552"></path><path d="M 97.94 178.90 L 121.63 288.00 C 121.63 288.00 120.93 304.38 120.93 315.96 C 120.93 327.54 130.91 365.36 130.91 365.36 L 145.78 365.36 L 136.03 178.90 L 97.94 178.90 Z" fill="#174e9f" fill-rule="evenodd" node-id="324" stroke="none" target-height="186.45598" target-width="47.840996" target-x="97.939" target-y="178.904"></path><path d="M 129.08 363.42 C 129.03 362.98 129.37 362.60 129.81 362.60 L 146.80 362.60 C 147.18 362.60 147.50 362.88 147.54 363.25 L 148.11 368.43 C 148.16 368.87 147.82 369.25 147.38 369.25 L 130.39 369.25 C 130.01 369.25 129.69 368.96 129.65 368.59 L 129.08 363.42 Z" fill="#113c7b" fill-rule="evenodd" node-id="326" stroke="none" target-height="6.6529846" target-width="19.134003" target-x="129.028" target-y="362.595"></path><path d="M 72.82 397.47 C 76.14 398.31 86.05 398.72 93.46 399.37 C 96.79 399.66 102.71 397.54 103.86 397.05 C 105.48 396.36 102.93 394.35 101.24 393.88 C 98.74 393.17 94.97 392.02 92.11 390.72 C 87.42 388.60 82.79 385.51 82.32 382.32 C 81.85 379.13 83.98 364.44 83.98 364.44 L 72.25 362.57 L 69.81 393.82 C 69.81 393.82 69.50 396.63 72.82 397.47 Z" fill="#ffc4a7" fill-rule="evenodd" node-id="328" stroke="none" target-height="37.08499" target-width="35.980095" target-x="69.4959" target-y="362.574"></path><path d="M 70.54 381.96 C 70.54 381.96 71.61 385.41 75.98 386.03 C 80.36 386.64 82.42 383.63 82.51 383.01 C 82.59 382.40 83.06 381.90 83.45 382.23 C 83.83 382.57 91.71 390.44 93.59 390.70 C 95.47 390.97 103.56 392.24 104.69 394.90 C 105.81 397.55 103.94 400.17 103.94 400.17 C 103.94 400.17 93.08 401.92 82.05 400.10 C 71.02 398.28 69.46 397.73 68.83 396.88 C 68.21 396.02 68.30 392.50 68.15 391.82 C 67.02 386.71 70.54 381.96 70.54 381.96 Z" fill="#a0c6ff" fill-rule="evenodd" node-id="330" stroke="none" target-height="20.018005" target-width="38.792" target-x="67.02" target-y="381.897"></path><path d="M 88.31 396.94 C 94.32 397.36 99.86 396.92 104.94 395.63 C 105.35 397.15 105.02 398.66 103.94 400.17 C 96.70 401.33 89.40 401.31 82.05 400.10 L 78.83 399.56 C 70.69 398.16 69.39 397.64 68.83 396.88 C 68.33 396.19 68.29 393.82 68.22 392.55 C 75.68 395.06 82.38 396.52 88.31 396.94 Z" fill="#2b6ac7" fill-rule="evenodd" node-id="332" stroke="none" target-height="8.786011" target-width="37.1307" target-x="68.2183" target-y="392.546"></path><path d="M 79.13 179.29 L 74.96 284.47 C 74.96 284.47 69.61 302.03 69.61 313.61 C 69.61 325.19 70.74 365.38 70.74 365.38 L 84.40 365.38 L 116.55 179.29 L 79.13 179.29 Z" fill="#1e62c8" fill-rule="evenodd" node-id="334" stroke="none" target-height="186.08699" target-width="46.939095" target-x="69.6089" target-y="179.295"></path><path d="M 102.41 185.44 L 90.32 202.53 L 92.10 185.51 L 102.41 185.44 Z" fill="#174e9f" fill-rule="evenodd" node-id="336" stroke="none" target-height="17.087006" target-width="12.089798" target-x="90.3242" target-y="185.439"></path><path d="M 92.35 181.96 L 80.24 288.08 C 80.24 288.08 76.68 301.24 74.81 315.80 C 72.93 330.36 73.18 365.38 73.18 365.38" fill="none" node-id="338" stroke="#174e9f" stroke-linecap="butt" stroke-width="0.587664" target-height="183.41998" target-width="19.4206" target-x="72.9308" target-y="181.962"></path><path d="M 69.44 363.29 C 69.46 362.90 69.79 362.60 70.18 362.60 L 86.07 362.60 C 86.49 362.60 86.83 362.95 86.81 363.38 L 86.52 368.55 C 86.50 368.94 86.17 369.25 85.78 369.25 L 69.89 369.25 C 69.47 369.25 69.13 368.89 69.15 368.47 L 69.44 363.29 Z" fill="#174e9f" fill-rule="evenodd" node-id="340" stroke="none" target-height="6.6529846" target-width="17.701202" target-x="69.1297" target-y="362.595"></path><path d="M 137.04 107.37 L 149.94 135.07 L 153.78 107.37 C 154.26 103.91 154.54 101.98 154.61 101.57 C 154.87 100.05 153.08 96.83 152.85 93.67 L 152.82 93.18 C 152.60 90.02 151.53 86.25 151.68 85.19 C 151.84 84.10 153.27 84.81 154.16 85.52 C 156.16 87.11 156.01 89.28 157.28 91.91 C 157.73 92.85 161.98 83.39 163.68 83.39 C 165.38 83.39 170.53 91.47 170.53 94.02 C 170.53 95.72 168.00 99.15 162.92 104.29 L 161.00 148.07 C 160.77 153.52 156.16 157.74 150.71 157.50 C 147.11 157.34 143.88 155.24 142.29 152.01 L 122.79 114.18 L 137.04 107.37 Z" fill="#ffc4a7" fill-rule="evenodd" node-id="342" stroke="none" target-height="74.344" target-width="47.747993" target-x="122.786" target-y="83.395"></path><path d="M 134.15 97.53 C 132.21 93.24 127.08 91.43 122.88 93.57 L 121.30 94.38 C 117.19 96.47 115.59 101.51 117.74 105.58 L 142.35 152.21 C 146.74 160.53 159.15 158.71 160.97 149.48 L 163.69 135.66 L 150.25 130.52 L 149.94 132.57 L 134.15 97.53 Z" fill="#a0c6ff" fill-rule="evenodd" node-id="344" stroke="none" target-height="69.09259" target-width="48.100006" target-x="115.595" target-y="91.4324"></path><path d="M 133.17 103.86 C 133.17 103.86 142.24 119.82 142.24 124.64 C 142.24 129.45 137.71 143.78 137.71 143.78 L 132.09 132.67 L 133.17 103.86 Z" fill="#080708" fill-opacity="0.223011" fill-rule="evenodd" node-id="346" stroke="none" target-height="39.922005" target-width="10.145996" target-x="132.093" target-y="103.861"></path><path d="M 149.94 132.57 L 148.42 142.69 L 148.42 129.22 L 149.94 132.57 Z" fill="#080708" fill-opacity="0.223011" fill-rule="evenodd" node-id="348" stroke="none" target-height="13.472992" target-width="1.5160065" target-x="148.424" target-y="129.216"></path><path d="M 79.01 103.75 C 77.73 98.71 81.15 93.70 86.31 93.06 L 108.52 90.34 L 126.57 92.36 C 127.78 92.50 128.82 93.23 129.33 94.33 C 131.84 99.72 139.24 116.11 139.66 123.19 C 140.06 129.73 134.09 137.03 134.09 143.74 C 134.09 150.44 138.49 182.01 138.49 182.01 L 77.69 185.09 C 77.15 185.12 76.74 184.61 76.89 184.09 L 88.89 142.48 L 79.01 103.75 Z" fill="#ffc4a7" fill-rule="evenodd" node-id="350" stroke="none" target-height="94.7811" target-width="63.3125" target-x="76.7435" target-y="90.3389"></path><path d="M 79.01 103.75 C 77.73 98.71 81.15 93.70 86.31 93.06 L 99.51 91.44 C 99.51 91.44 106.58 103.04 115.15 102.32 C 123.72 101.60 118.81 91.49 118.81 91.49 L 126.57 92.36 C 127.78 92.50 128.82 93.23 129.33 94.33 C 131.84 99.72 139.24 116.11 139.66 123.19 C 140.06 129.73 134.09 137.03 134.09 143.74 C 134.09 150.44 138.49 182.01 138.49 182.01 L 77.69 185.09 C 77.15 185.12 76.74 184.61 76.89 184.09 L 88.89 142.48 L 79.01 103.75 Z" fill="#e3e9ff" fill-rule="evenodd" node-id="352" stroke="none" target-height="93.6757" target-width="63.3125" target-x="76.7435" target-y="91.4443"></path><path d="M 93.44 106.99 L 87.72 136.32 L 83.22 120.71 L 93.44 106.99 Z" fill="#080708" fill-opacity="0.223011" fill-rule="evenodd" node-id="354" stroke="none" target-height="29.324005" target-width="10.217804" target-x="83.2178" target-y="106.993"></path><path d="M 157.22 77.93 C 157.84 77.46 158.76 77.57 159.24 78.21 C 159.72 78.85 159.59 79.75 158.96 80.23 L 158.06 80.90 L 167.88 93.93 L 182.62 97.81 C 185.72 98.63 186.19 100.84 183.77 102.76 L 183.63 102.86 L 166.25 115.96 C 163.72 117.87 161.68 116.90 161.67 113.78 L 161.67 113.60 L 162.00 98.36 L 152.18 85.33 L 151.29 86.00 C 150.68 86.46 149.84 86.37 149.35 85.81 L 149.27 85.72 C 148.79 85.08 148.92 84.19 149.56 83.70 L 157.22 77.93 Z" fill="#c8daff" fill-rule="evenodd" node-id="356" stroke="none" target-height="40.406303" target-width="37.401993" target-x="148.791" target-y="77.4647"></path><path d="M 165.26 114.11 C 164.73 114.52 163.97 114.13 163.97 113.47 L 164.07 104.90 L 173.91 97.48 L 182.07 99.71 C 182.71 99.88 182.87 100.72 182.35 101.12 L 165.26 114.11 Z" fill="#ff427b" fill-rule="evenodd" node-id="358" stroke="none" target-height="17.037697" target-width="18.90599" target-x="163.968" target-y="97.4793"></path><path d="M 89.55 111.49 L 70.61 142.21 C 70.61 142.21 99.95 153.59 109.40 156.21 C 112.66 157.11 116.88 148.88 121.64 150.06 C 123.48 150.52 116.24 157.15 119.69 157.76 C 127.40 159.11 133.34 160.42 133.89 162.06 C 134.56 164.08 126.08 168.95 122.31 169.53 C 120.23 169.85 114.17 167.69 106.87 165.75 C 101.74 164.38 81.01 159.85 65.80 156.56 C 57.42 154.75 53.20 145.34 57.41 137.88 L 76.62 103.86 L 89.55 111.49 Z" fill="#ffc4a7" fill-rule="evenodd" node-id="360" stroke="none" target-height="65.993996" target-width="81.36679" target-x="53.1972" target-y="103.861"></path><path d="M 78.20 98.95 C 80.53 94.68 86.03 93.34 90.06 96.06 L 91.64 97.13 C 95.28 99.59 96.36 104.46 94.10 108.22 L 73.82 141.94 L 81.44 145.17 L 76.26 160.32 L 60.97 156.15 C 54.75 154.45 51.75 147.40 54.84 141.74 L 78.20 98.95 Z" fill="#a0c6ff" fill-rule="evenodd" node-id="362" stroke="none" target-height="66.9742" target-width="44.614197" target-x="51.7463" target-y="93.3448"></path><path d="M 101.12 50.47 C 109.08 34.65 128.89 44.14 132.31 54.78 C 134.14 60.46 135.14 74.42 131.32 80.78 C 129.40 83.97 127.84 92.54 127.84 92.54 L 109.83 91.17 L 86.26 93.00 C 86.26 93.00 86.63 83.83 89.19 80.78 C 91.87 77.60 93.16 75.89 93.16 67.95 C 93.16 60.02 93.95 50.47 101.12 50.47 Z" fill="#0a2650" fill-rule="evenodd" node-id="364" stroke="none" target-height="58.351704" target-width="48.879303" target-x="86.2617" target-y="34.649"></path><path d="M 103.71 91.42 C 103.71 94.88 106.52 97.67 109.97 97.67 C 113.65 97.67 116.53 94.52 116.21 90.86 L 115.48 82.74 C 115.48 82.74 123.28 83.36 125.92 79.59 C 128.56 75.82 128.19 56.19 128.19 56.19 L 103.71 56.19 C 103.71 56.19 103.71 61.06 103.71 62.75 C 96.24 62.75 96.24 71.77 103.71 71.77 C 103.71 77.56 103.71 85.80 103.71 91.42 Z" fill="#ffc4a7" fill-rule="evenodd" node-id="366" stroke="none" target-height="41.4805" target-width="32.316" target-x="96.24" target-y="56.1929"></path><path d="M 115.50 82.72 C 115.50 82.72 113.19 82.41 111.41 81.84 C 109.63 81.28 107.37 80.15 107.37 80.15 C 107.37 80.15 110.43 83.12 112.04 84.40 C 113.64 85.67 115.89 86.91 115.89 86.91 L 115.50 82.72 Z" fill="#f19b93" fill-rule="evenodd" node-id="368" stroke="none" target-height="6.7616043" target-width="8.512001" target-x="107.374" target-y="80.1494"></path><path d="M 123.17 67.28 L 123.17 73.75 C 123.17 73.75 125.86 72.35 125.86 71.80 C 125.86 71.26 123.17 67.28 123.17 67.28 Z" fill="#f19b93" fill-rule="evenodd" node-id="370" stroke="none" target-height="6.469002" target-width="2.6959991" target-x="123.166" target-y="67.2808"></path><path d="M 121.22 56.77 C 121.22 56.77 123.30 61.81 125.16 63.32 C 127.01 64.84 130.25 65.31 130.25 65.31 L 130.48 53.80 L 102.69 51.75 L 102.69 62.15 C 102.69 62.15 110.43 66.73 114.78 64.21 C 119.13 61.69 121.22 56.77 121.22 56.77 Z" fill="#0a2650" fill-rule="evenodd" node-id="372" stroke="none" target-height="14.981304" target-width="27.793991" target-x="102.69" target-y="51.7515"></path><path d="M 205.88 205.20 L 189.08 205.20 L 189.08 401.28 L 205.88 401.28 L 205.88 205.20 Z" fill="#a7c3ff" fill-rule="evenodd" node-id="374" stroke="none" target-height="196.08" target-width="16.800003" target-x="189.08" target-y="205.2"></path><path d="M 208.40 205.20 L 198.32 205.20 L 198.32 401.28 L 208.40 401.28 L 208.40 205.20 Z" fill="#c8daff" fill-rule="evenodd" node-id="376" stroke="none" target-height="196.08" target-width="10.079987" target-x="198.32" target-y="205.2"></path><path d="M 281.48 205.20 L 198.32 205.20 L 198.32 210.32 L 264.68 210.32 L 264.68 401.28 L 281.48 401.28 L 281.48 205.20 Z" fill="#a7c3ff" fill-rule="evenodd" node-id="378" stroke="none" target-height="196.08" target-width="83.16" target-x="198.32" target-y="205.2"></path><path d="M 284.00 205.20 L 273.92 205.20 L 273.92 401.28 L 284.00 401.28 L 284.00 205.20 Z" fill="#c8daff" fill-rule="evenodd" node-id="380" stroke="none" target-height="196.08" target-width="10.079987" target-x="273.92" target-y="205.2"></path><path d="M 17.72 205.20 L 0.92 205.20 L 0.92 401.28 L 17.72 401.28 L 17.72 205.20 Z" fill="#a7c3ff" fill-rule="evenodd" node-id="382" stroke="none" target-height="196.08" target-width="16.799984" target-x="0.920216" target-y="205.2"></path><path d="M 20.24 205.20 L 10.16 205.20 L 10.16 401.28 L 20.24 401.28 L 20.24 205.20 Z" fill="#c8daff" fill-rule="evenodd" node-id="384" stroke="none" target-height="196.08" target-width="10.08" target-x="10.1602" target-y="205.2"></path><path d="M 93.32 205.20 L 10.16 205.20 L 10.16 212.00 L 76.52 212.00 L 76.52 401.28 L 93.32 401.28 L 93.32 205.20 Z" fill="#a7c3ff" fill-rule="evenodd" node-id="386" stroke="none" target-height="196.08" target-width="83.16" target-x="10.1598" target-y="205.2"></path><path d="M 95.84 205.20 L 85.76 205.20 L 85.76 401.28 L 95.84 401.28 L 95.84 205.20 Z" fill="#c8daff" fill-rule="evenodd" node-id="388" stroke="none" target-height="196.08" target-width="10.079994" target-x="85.7598" target-y="205.2"></path><path d="M 200.00 202.68 C 200.00 201.75 199.25 201.00 198.32 201.00 L 2.60 201.00 C 1.67 201.00 0.92 201.75 0.92 202.68 L 0.92 211.92 C 0.92 212.85 1.67 213.60 2.60 213.60 L 198.32 213.60 C 199.25 213.60 200.00 212.85 200.00 211.92 L 200.00 202.68 Z" fill="#a7c3ff" fill-rule="evenodd" node-id="390" stroke="none" target-height="12.600006" target-width="199.08" target-x="0.919998" target-y="201"></path><path d="M 284.00 202.68 C 284.00 201.75 283.25 201.00 282.32 201.00 L 87.44 201.00 C 86.51 201.00 85.76 201.75 85.76 202.68 L 85.76 211.92 C 85.76 212.85 86.51 213.60 87.44 213.60 L 282.32 213.60 C 283.25 213.60 284.00 212.85 284.00 211.92 L 284.00 202.68 Z" fill="#c8daff" fill-rule="evenodd" node-id="392" stroke="none" target-height="12.600006" target-width="198.23999" target-x="85.76" target-y="201"></path><path d="M 303.80 292.00 L 357.00 292.00 C 361.64 292.00 365.40 295.76 365.40 300.40 L 365.40 392.80 C 365.40 397.44 361.64 401.20 357.00 401.20 L 303.80 401.20 C 299.16 401.20 295.40 397.44 295.40 392.80 L 295.40 300.40 C 295.40 295.76 299.16 292.00 303.80 292.00 Z" fill="#eaefff" fill-rule="nonzero" node-id="394" stroke="none" target-height="109.20001" target-width="70" target-x="295.4" target-y="292"></path><path d="M 339.50 355.00 C 344.53 355.00 348.60 350.93 348.60 345.90 C 348.60 340.88 344.53 336.80 339.50 336.80 C 334.48 336.80 330.40 340.88 330.40 345.90 C 330.40 350.93 334.48 355.00 339.50 355.00 Z M 339.50 352.98 C 335.59 352.98 332.42 349.81 332.42 345.90 C 332.42 341.99 335.59 338.82 339.50 338.82 C 343.41 338.82 346.58 341.99 346.58 345.90 C 346.58 349.81 343.41 352.98 339.50 352.98 Z" fill="#91b0f0" fill-rule="evenodd" node-id="396" stroke="none" target-height="18.200012" target-width="18.200012" target-x="330.4" target-y="336.8"></path><path d="M 327.87 344.59 L 331.59 348.21 L 334.28 344.31 L 327.87 344.59 Z" fill="#91b0f0" fill-rule="evenodd" node-id="398" stroke="none" target-height="3.9039917" target-width="6.4100037" target-x="327.869" target-y="344.31"></path><path d="M 329.87 346.53 L 329.37 347.00 L 331.80 349.01 L 333.51 346.91 L 332.83 346.33 L 331.59 348.06 L 329.87 346.53 Z" fill="url(#paint0_linear)" fill-rule="evenodd" node-id="400" stroke="none" target-height="2.683014" target-width="4.144989" target-x="329.366" target-y="346.326"></path><path d="M 343.46 355.97 L 345.30 351.32 L 340.15 350.65 L 343.46 355.97 Z" fill="#91b0f0" fill-rule="evenodd" node-id="402" stroke="none" target-height="5.321991" target-width="5.149994" target-x="340.146" target-y="350.646"></path><path d="M 346.70 336.98 L 341.77 337.20 L 343.21 342.00 L 346.70 336.98 Z" fill="#91b0f0" fill-rule="evenodd" node-id="404" stroke="none" target-height="5.020996" target-width="4.9379883" target-x="341.767" target-y="336.983"></path><path d="M 344.34 337.01 L 344.39 336.33 L 340.98 336.54 L 341.75 340.47 L 342.64 340.41 L 341.88 337.18 L 344.34 337.01 Z" fill="url(#paint1_linear)" fill-rule="evenodd" node-id="406" stroke="none" target-height="4.1369934" target-width="3.4069824" target-x="340.979" target-y="336.333"></path><path d="M 344.40 353.56 L 344.98 353.73 L 345.89 350.98 L 343.14 350.27 L 343.00 350.98 L 344.98 351.49 L 344.40 353.56 Z" fill="url(#paint2_linear)" fill-rule="evenodd" node-id="408" stroke="none" target-height="3.4559937" target-width="2.894989" target-x="343" target-y="350.271"></path><path d="M 295.40 292.00 L 316.40 292.00 L 316.40 401.20 L 303.80 401.20 C 299.16 401.20 295.40 397.44 295.40 392.80 L 295.40 292.00 Z" fill="#a7c3ff" fill-rule="nonzero" node-id="410" stroke="none" target-height="109.20001" target-width="21" target-x="295.4" target-y="292"></path><path d="M 294.00 292.00 L 366.80 292.00 L 366.80 299.00 L 294.00 299.00 L 294.00 292.00 Z" fill="#c8daff" fill-rule="evenodd" node-id="412" stroke="none" target-height="7" target-width="72.79999" target-x="294" target-y="292"></path><path d="M 294.00 292.00 L 316.40 292.00 L 316.40 299.00 L 294.00 299.00 L 294.00 292.00 Z" fill="#a7c3ff" fill-rule="evenodd" node-id="414" stroke="none" target-height="7" target-width="22.399994" target-x="294" target-y="292"></path><path d="M 331.80 395.60 L 350.00 395.60 L 350.00 402.60 L 331.80 402.60 L 331.80 395.60 Z" fill="#a7c3ff" fill-rule="evenodd" node-id="416" stroke="none" target-height="7" target-width="18.200012" target-x="331.8" target-y="395.6"></path><path d="M 37.92 156.32 L 37.92 189.12 C 37.92 190.88 39.36 192.36 41.16 192.36 C 42.92 192.36 44.40 190.92 44.40 189.12 L 44.40 156.32 L 37.92 156.32 Z" fill="#c8daff" fill-rule="evenodd" node-id="418" stroke="none" target-height="36.039993" target-width="6.4799995" target-x="37.9199" target-y="156.32"></path><path d="M 38.80 165.00 L 43.55 165.00 L 43.55 188.62 C 43.55 189.94 42.49 191.00 41.18 191.00 C 39.86 191.00 38.80 189.94 38.80 188.62 L 38.80 165.00 Z" fill="#ff427b" fill-rule="evenodd" node-id="420" stroke="none" target-height="26" target-width="4.754299" target-x="38.7998" target-y="165"></path><path d="M 46.40 156.24 C 46.40 156.88 45.88 157.40 45.24 157.40 L 37.28 157.40 C 36.64 157.40 36.12 156.88 36.12 156.24 C 36.12 155.60 36.64 155.08 37.28 155.08 L 45.24 155.08 C 45.88 155.08 46.40 155.60 46.40 156.24 Z" fill="#c8daff" fill-rule="evenodd" node-id="422" stroke="none" target-height="2.319992" target-width="10.280003" target-x="36.1196" target-y="155.08"></path><path d="M 49.92 156.32 L 49.92 189.12 C 49.92 190.88 51.36 192.36 53.16 192.36 C 54.92 192.36 56.40 190.92 56.40 189.12 L 56.40 156.32 L 49.92 156.32 Z" fill="#c8daff" fill-rule="evenodd" node-id="424" stroke="none" target-height="36.039993" target-width="6.4799995" target-x="49.9199" target-y="156.32"></path><path d="M 50.80 175.00 L 55.55 175.00 L 55.55 188.62 C 55.55 189.94 54.49 191.00 53.18 191.00 C 51.86 191.00 50.80 189.94 50.80 188.62 L 50.80 175.00 Z" fill="#4ed266" fill-rule="nonzero" node-id="426" stroke="none" target-height="16" target-width="4.754299" target-x="50.7998" target-y="175"></path><path d="M 58.40 156.24 C 58.40 156.88 57.88 157.40 57.24 157.40 L 49.28 157.40 C 48.64 157.40 48.12 156.88 48.12 156.24 C 48.12 155.60 48.64 155.08 49.28 155.08 L 57.24 155.08 C 57.88 155.08 58.40 155.60 58.40 156.24 Z" fill="#c8daff" fill-rule="evenodd" node-id="428" stroke="none" target-height="2.319992" target-width="10.280003" target-x="48.1196" target-y="155.08"></path><path d="M 61.92 156.32 L 61.92 189.12 C 61.92 190.88 63.36 192.36 65.16 192.36 C 66.92 192.36 68.40 190.92 68.40 189.12 L 68.40 156.32 L 61.92 156.32 Z" fill="#c8daff" fill-rule="evenodd" node-id="430" stroke="none" target-height="36.039993" target-width="6.4800034" target-x="61.9199" target-y="156.32"></path><path d="M 62.80 162.00 L 67.55 162.00 L 67.55 188.62 C 67.55 189.94 66.49 191.00 65.18 191.00 C 63.86 191.00 62.80 189.94 62.80 188.62 L 62.80 162.00 Z" fill="#1075f0" fill-rule="nonzero" node-id="432" stroke="none" target-height="29" target-width="4.754299" target-x="62.7998" target-y="162"></path><path d="M 70.40 156.24 C 70.40 156.88 69.88 157.40 69.24 157.40 L 61.28 157.40 C 60.64 157.40 60.12 156.88 60.12 156.24 C 60.12 155.60 60.64 155.08 61.28 155.08 L 69.24 155.08 C 69.88 155.08 70.40 155.60 70.40 156.24 Z" fill="#c8daff" fill-rule="evenodd" node-id="434" stroke="none" target-height="2.319992" target-width="10.279999" target-x="60.1196" target-y="155.08"></path><path d="M 74.32 169.48 L 71.80 169.48 L 71.80 193.16 L 34.60 193.16 L 34.60 169.48 L 32.08 169.48 L 32.08 195.56 C 32.08 195.63 32.13 195.68 32.20 195.68 L 73.92 195.68 C 74.14 195.68 74.32 195.50 74.32 195.28 L 74.32 169.48 Z" fill="#a7c3ff" fill-rule="evenodd" node-id="436" stroke="none" target-height="26.199997" target-width="42.239998" target-x="32.0801" target-y="169.48"></path><path d="M 29.00 193.20 L 77.00 193.20 L 77.00 201.20 L 29.00 201.20 L 29.00 193.20 Z" fill="#a7c3ff" fill-rule="evenodd" node-id="438" stroke="none" target-height="8" target-width="48" target-x="29" target-y="193.2"></path><path d="M 76.92 170.04 C 76.92 171.04 76.12 171.84 75.12 171.84 L 31.12 171.84 C 30.12 171.84 29.32 171.04 29.32 170.04 C 29.32 169.04 30.12 168.24 31.12 168.24 L 75.12 168.24 C 76.12 168.24 76.92 169.04 76.92 170.04 Z" fill="#a7c3ff" fill-rule="evenodd" node-id="440" stroke="none" target-height="3.5999908" target-width="47.6" target-x="29.3198" target-y="168.24"></path><path d="M 188.88 154.76 L 188.88 138.28 L 182.92 138.28 L 182.92 154.76 C 176.16 156.12 171.12 162.12 171.12 169.24 C 171.12 177.40 177.76 184.04 185.92 184.04 C 194.08 184.04 200.72 177.40 200.72 169.24 C 200.68 162.08 195.60 156.12 188.88 154.76 Z" fill="#c8daff" fill-rule="evenodd" node-id="442" stroke="none" target-height="45.759995" target-width="29.600006" target-x="171.12" target-y="138.28"></path><path d="M 185.50 182.00 C 190.10 182.00 194.06 180.06 195.90 176.84 C 196.61 175.61 192.79 177.93 186.16 177.50 C 179.54 177.08 174.54 175.61 175.50 176.97 C 177.48 179.79 181.22 182.00 185.50 182.00 Z" fill="#b34ee6" fill-rule="nonzero" node-id="444" stroke="none" target-height="6.3930054" target-width="22.061996" target-x="174.545" target-y="175.607"></path><path d="M 191.12 138.80 C 191.12 139.80 190.32 140.60 189.32 140.60 L 182.52 140.60 C 181.52 140.60 180.72 139.80 180.72 138.80 C 180.72 137.80 181.52 137.00 182.52 137.00 L 189.32 137.00 C 190.32 137.00 191.12 137.80 191.12 138.80 Z" fill="#c8daff" fill-rule="evenodd" node-id="446" stroke="none" target-height="3.600006" target-width="10.399994" target-x="180.72" target-y="137"></path><path d="M 162.04 199.72 C 161.68 200.88 163.88 201.36 164.20 200.20 C 167.16 190.40 170.12 180.60 173.08 170.80 C 173.44 169.68 171.24 169.20 170.92 170.32 C 167.96 180.12 165.00 189.92 162.04 199.72 Z" fill="#a7c3ff" fill-rule="evenodd" node-id="448" stroke="none" target-height="32.15999" target-width="11.76001" target-x="161.68" target-y="169.201"></path><path d="M 210.52 199.72 C 210.88 200.88 208.68 201.36 208.36 200.20 C 205.40 190.40 202.44 180.60 199.48 170.80 C 199.12 169.68 201.32 169.20 201.64 170.32 C 204.60 180.12 207.56 189.92 210.52 199.72 Z" fill="#a7c3ff" fill-rule="evenodd" node-id="450" stroke="none" target-height="32.15999" target-width="11.76001" target-x="199.12" target-y="169.201"></path><path d="M 207.56 170.56 C 207.56 171.80 206.56 172.76 205.36 172.76 L 167.24 172.76 C 166.00 172.76 165.04 171.76 165.04 170.56 C 165.04 169.32 166.04 168.36 167.24 168.36 L 205.32 168.36 C 206.56 168.36 207.56 169.36 207.56 170.56 Z" fill="#a7c3ff" fill-rule="evenodd" node-id="452" stroke="none" target-height="4.399994" target-width="42.520004" target-x="165.04" target-y="168.36"></path><path d="M 208.96 201.04 C 209.80 201.04 209.80 195.72 208.96 195.72 C 187.52 195.72 184.88 195.72 163.40 195.72 C 162.52 195.68 162.52 201.04 163.40 201.04 C 184.84 201.04 187.48 201.04 208.96 201.04 Z" fill="#a7c3ff" fill-rule="evenodd" node-id="454" stroke="none" target-height="5.3600006" target-width="47.28" target-x="162.52" target-y="195.68"></path><path d="M 177.08 193.84 L 194.88 193.84 L 194.88 196.12 L 177.08 196.12 Z" fill="#a7c3ff" fill-rule="nonzero" node-id="456" stroke="none" target-height="2.2799988" target-width="17.800003" target-x="177.08" target-y="193.84"></path><path d="M 242.06 140.28 L 244.96 135.73 L 264.47 148.16 C 269.45 151.34 272.46 156.83 272.46 162.73 L 272.46 201.38 L 267.06 201.38 L 267.06 165.69 C 267.06 159.79 264.05 154.30 259.07 151.12 L 242.06 140.28 Z" fill="#a7c3ff" fill-rule="evenodd" node-id="458" stroke="none" target-height="65.653" target-width="30.398987" target-x="242.061" target-y="135.727"></path><path d="M 227.04 159.93 L 228.85 155.23 L 230.86 156.00 L 229.06 160.71 Z" fill="#a7c3ff" fill-rule="nonzero" group-id="2" node-id="462" stroke="none" target-height="5.479309" target-width="3.8227234" target-x="227.041" target-y="155.22775"></path><path d="M 227.92 155.64 L 244.43 112.62 L 244.81 112.22 L 245.36 112.21 L 249.39 113.76 L 249.79 114.13 L 249.81 114.69 L 233.29 157.71 L 232.92 158.10 L 232.36 158.12 L 228.33 156.57 L 227.93 156.19 L 227.92 155.64 Z" fill="#c8daff" fill-rule="nonzero" group-id="3" node-id="467" stroke="none" target-height="45.91188" target-width="21.891022" target-x="227.91702" target-y="112.207275"></path><path d="M 228.71 143.00 C 228.00 142.73 227.62 141.95 227.85 141.22 L 233.81 122.40 C 234.06 121.63 234.89 121.22 235.65 121.47 L 245.03 124.65 C 245.81 124.91 246.21 125.77 245.92 126.53 L 238.71 145.30 C 238.43 146.04 237.59 146.41 236.85 146.12 L 228.71 143.00 Z" fill="#95b2ee" fill-rule="evenodd" node-id="470" stroke="none" target-height="25.194" target-width="18.588013" target-x="227.622" target-y="121.216"></path><path d="M 227.35 153.11 C 226.60 152.82 226.23 151.99 226.52 151.25 L 239.68 116.97 C 239.96 116.22 240.80 115.85 241.54 116.14 L 249.60 119.23 C 250.35 119.52 250.72 120.35 250.43 121.10 L 237.27 155.38 C 236.99 156.12 236.16 156.49 235.41 156.21 L 227.35 153.11 Z" fill="#a7c3ff" fill-rule="evenodd" node-id="472" stroke="none" target-height="40.63601" target-width="24.485" target-x="226.233" target-y="115.854"></path><path d="M 250.03 140.22 C 251.46 136.51 249.60 132.34 245.89 130.92 C 242.18 129.50 238.01 131.35 236.59 135.06 C 235.16 138.77 237.02 142.94 240.73 144.36 C 244.44 145.79 248.61 143.94 250.03 140.22 Z" fill="#95b2ee" fill-rule="evenodd" node-id="474" stroke="none" target-height="16.294006" target-width="16.294006" target-x="235.163" target-y="129.495"></path><path d="M 247.34 139.19 C 248.20 136.96 247.09 134.46 244.86 133.61 C 242.63 132.75 240.13 133.87 239.28 136.09 C 238.42 138.32 239.53 140.82 241.76 141.68 C 243.99 142.53 246.49 141.42 247.34 139.19 Z" fill="#c8daff" fill-rule="evenodd" node-id="476" stroke="none" target-height="9.776001" target-width="9.776001" target-x="238.422" target-y="132.754"></path><path d="M 242.16 112.52 C 241.41 112.23 241.04 111.40 241.33 110.66 L 242.04 108.81 C 242.42 107.81 243.75 107.54 244.55 108.25 C 245.71 109.26 247.32 110.49 248.93 111.11 C 249.99 111.52 251.04 111.66 251.97 111.67 C 253.19 111.69 254.32 112.97 253.89 114.11 L 253.43 115.30 C 253.14 116.05 252.31 116.42 251.57 116.13 L 242.16 112.52 Z" fill="#95b2ee" fill-rule="evenodd" node-id="478" stroke="none" target-height="8.876999" target-width="13.279007" target-x="241.043" target-y="107.54"></path><path d="M 221.16 174.74 L 270.84 174.74 C 271.64 174.74 272.28 175.38 272.28 176.18 L 272.28 177.62 C 272.28 178.42 271.64 179.06 270.84 179.06 L 221.16 179.06 C 220.36 179.06 219.72 178.42 219.72 177.62 L 219.72 176.18 C 219.72 175.38 220.36 174.74 221.16 174.74 Z" fill="#a7c3ff" fill-rule="nonzero" node-id="480" stroke="none" target-height="4.319992" target-width="52.559998" target-x="219.72" target-y="174.74"></path><path d="M 221.16 193.46 L 276.60 193.46 C 277.40 193.46 278.04 194.10 278.04 194.90 L 278.04 199.94 C 278.04 200.74 277.40 201.38 276.60 201.38 L 221.16 201.38 C 220.36 201.38 219.72 200.74 219.72 199.94 L 219.72 194.90 C 219.72 194.10 220.36 193.46 221.16 193.46 Z" fill="#95b2ee" fill-rule="nonzero" node-id="482" stroke="none" target-height="7.919998" target-width="58.320007" target-x="219.72" target-y="193.46"></path></svg>