<?xml version="1.0" standalone="no"?><!DOCTYPE svg PUBLIC "-//W3C//DTD SVG 1.1//EN" "http://www.w3.org/Graphics/SVG/1.1/DTD/svg11.dtd"><svg t="1700028797984" class="icon" viewBox="0 0 1024 1024" version="1.1" xmlns="http://www.w3.org/2000/svg" p-id="3691" xmlns:xlink="http://www.w3.org/1999/xlink" width="200" height="200"><path d="M490.666667 768c0-12.8 4.266667-21.333333 12.8-29.866667l226.133333-226.133333-226.133333-226.133333c-17.066667-17.066667-17.066667-42.666667 0-59.733334s42.666667-17.066667 59.733333 0l256 256c17.066667 17.066667 17.066667 42.666667 0 59.733334l-256 256c-17.066667 17.066667-42.666667 17.066667-59.733333 0-8.533333-8.533333-12.8-17.066667-12.8-29.866667z" p-id="3692" fill="#1296db"></path><path d="M192 768c0-12.8 4.266667-21.333333 12.8-29.866667l226.133333-226.133333-226.133333-226.133333c-17.066667-17.066667-17.066667-42.666667 0-59.733334s42.666667-17.066667 59.733333 0l256 256c17.066667 17.066667 17.066667 42.666667 0 59.733334l-256 256c-17.066667 17.066667-42.666667 17.066667-59.733333 0-8.533333-8.533333-12.8-17.066667-12.8-29.866667z" p-id="3693" fill="#1296db"></path></svg>